<svg xmlns="http://www.w3.org/2000/svg" xmlns:xlink="http://www.w3.org/1999/xlink" version="1.1" width="15" height="15" viewBox="0 0 256 300" xml:space="preserve">

<defs>
</defs>
<g transform="translate(1, 20) scale(2.81 2.81)" >
	<polygon fill="#9FCD2F" points="37.95,64.44 23.78,50.27 30.85,43.2 37.95,50.3 59.15,29.1 66.22,36.17 "  transform="  matrix(1 0 0 1 0 0) "/>
	<path fill="#9FCD2F" d="M 45 90 C 20.187 90 0 69.813 0 45 C 0 20.187 20.187 0 45 0 c 24.813 0 45 20.187 45 45 C 90 69.813 69.813 90 45 90 z M 45 10 c -19.299 0 -35 15.701 -35 35 s 15.701 35 35 35 s 35 -15.701 35 -35 S 64.299 10 45 10 z"  transform=" matrix(1 0 0 1 0 0) " stroke-linecap="round" />
</g>
</svg>
